HIERARCHY
ROOT Hips
{
	OFFSET 0.000000 0.000000 0.000000
	CHANNELS 6 Xposition Yposition Zposition Yrotation Xrotation Zrotation
	JOINT Chest
	{
		OFFSET 0.000000 -0.009282 11.569106
		CHANNELS 6 Xposition Yposition Zposition Yrotation Xrotation Zrotation
		JOINT Chest2
		{
			OFFSET -0.000000 0.016863 9.269641
			CHANNELS 6 Xposition Yposition Zposition Yrotation Xrotation Zrotation
			JOINT Chest3
			{
				OFFSET -0.000000 0.000000 8.374491
				CHANNELS 6 Xposition Yposition Zposition Yrotation Xrotation Zrotation
				JOINT Chest4
				{
					OFFSET -0.000000 0.000000 8.374493
					CHANNELS 6 Xposition Yposition Zposition Yrotation Xrotation Zrotation
					JOINT Neck
					{
						OFFSET -0.000000 0.000001 12.152554
						CHANNELS 6 Xposition Yposition Zposition Yrotation Xrotation Zrotation
						JOINT Head
						{
							OFFSET -0.000000 0.040100 7.802319
							CHANNELS 6 Xposition Yposition Zposition Yrotation Xrotation Zrotation
							End Site
							{
								OFFSET -0.000000 0.020946 14.853096
							}
						}
					}
					JOINT RightCollar
					{
						OFFSET 2.894404 0.000001 6.791374
						CHANNELS 6 Xposition Yposition Zposition Yrotation Xrotation Zrotation
						JOINT RightShoulder
						{
							OFFSET 13.574684 0.000001 0.000000
							CHANNELS 6 Xposition Yposition Zposition Yrotation Xrotation Zrotation
							JOINT RightElbow
							{
								OFFSET 23.923903 0.000002 0.000000
								CHANNELS 6 Xposition Yposition Zposition Yrotation Xrotation Zrotation
								JOINT RightWrist
								{
									OFFSET 19.846718 0.012767 0.000000
									CHANNELS 6 Xposition Yposition Zposition Yrotation Xrotation Zrotation
									End Site
									{
										OFFSET 14.973145 0.000001 0.000000
									}
								}
							}
						}
					}
					JOINT LeftCollar
					{
						OFFSET -2.894404 0.000000 6.791374
						CHANNELS 6 Xposition Yposition Zposition Yrotation Xrotation Zrotation
						JOINT LeftShoulder
						{
							OFFSET -13.574684 -0.000001 0.000000
							CHANNELS 6 Xposition Yposition Zposition Yrotation Xrotation Zrotation
							JOINT LeftElbow
							{
								OFFSET -23.923903 -0.000002 0.000000
								CHANNELS 6 Xposition Yposition Zposition Yrotation Xrotation Zrotation
								JOINT LeftWrist
								{
									OFFSET -19.846718 0.012763 0.000000
									CHANNELS 6 Xposition Yposition Zposition Yrotation Xrotation Zrotation
									End Site
									{
										OFFSET -14.973145 -0.000001 0.000000
									}
								}
							}
						}
					}
				}
			}
		}
	}
	JOINT RightHip
	{
		OFFSET 9.469263 0.004643 0.045487
		CHANNELS 6 Xposition Yposition Zposition Yrotation Xrotation Zrotation
		JOINT RightKnee
		{
			OFFSET 0.000000 0.002666 -40.478676
			CHANNELS 6 Xposition Yposition Zposition Yrotation Xrotation Zrotation
			JOINT RightAnkle
			{
				OFFSET 0.000000 0.049110 -35.224068
				CHANNELS 6 Xposition Yposition Zposition Yrotation Xrotation Zrotation
				JOINT RightToe
				{
					OFFSET -0.000001 12.539530 -6.151390
					CHANNELS 6 Xposition Yposition Zposition Yrotation Xrotation Zrotation
					End Site
					{
						OFFSET -0.000001 5.044996 -1.291870
					}
				}
			}
		}
	}
	JOINT LeftHip
	{
		OFFSET -9.469263 0.004641 0.045487
		CHANNELS 6 Xposition Yposition Zposition Yrotation Xrotation Zrotation
		JOINT LeftKnee
		{
			OFFSET 0.000000 0.002666 -40.478676
			CHANNELS 6 Xposition Yposition Zposition Yrotation Xrotation Zrotation
			JOINT LeftAnkle
			{
				OFFSET 0.000000 0.049110 -35.224068
				CHANNELS 6 Xposition Yposition Zposition Yrotation Xrotation Zrotation
				JOINT LeftToe
				{
					OFFSET -0.000001 12.539530 -6.151390
					CHANNELS 6 Xposition Yposition Zposition Yrotation Xrotation Zrotation
					End Site
					{
						OFFSET -0.000001 5.044996 -1.291870
					}
				}
			}
		}
	}
}
MOTION
Frames: 4
Frame Time: 0.016667
4.759594 4.556438 83.032150 -10.860537 -2.702691 -103.092628 -0.000000 -0.009283 11.569111 -0.312660 -4.286034 1.580319 0.000001 0.016862 9.269627 -0.100924 -1.892881 0.711561 -0.000000 0.000001 8.374494 -0.100925 -1.892881 0.711560 0.000000 -0.000000 8.374496 -0.073482 -1.419780 0.533309 -0.000001 0.000002 12.152555 5.295589 -18.183319 -10.278531 0.000000 0.040095 7.802305 6.340493 2.463944 -17.143160 2.894404 0.000001 6.791382 7.818465 0.889139 -11.296043 13.574686 0.000002 -0.000020 65.305433 9.615411 22.439625 23.923914 0.000005 -0.000007 79.653147 -40.762316 32.672104 19.846712 0.012771 0.000006 -26.745397 30.678078 24.478927 -2.894404 0.000000 6.791381 -7.104648 0.087148 -4.604537 -13.574680 -0.000000 0.000003 -57.278844 -10.383458 -31.170125 -23.923925 -0.000002 -0.000008 -52.384897 -17.662786 -51.068744 -19.846712 0.012749 -0.000000 22.718087 37.090519 -26.045374 9.469263 0.004642 0.045485 1.251689 -13.985582 -11.310506 0.000138 0.002657 -40.478508 -3.914837 3.367112 -3.196723 0.000012 0.049110 -35.224052 4.900615 0.275852 -0.249025 -0.000007 12.539526 -6.151398 0.117016 -0.078277 0.146405 -9.469262 0.004641 0.045491 0.117864 -13.689338 -22.028648 -0.000852 0.002519 -40.478477 -0.808359 4.809922 18.538943 -0.000978 0.048925 -35.224068 1.140949 -0.621018 21.403134 0.000010 12.539534 -6.151395 -0.146848 -0.060434 -0.232492 
4.767815 4.552992 83.033936 -10.901737 -2.695050 -103.047071 -0.000001 -0.009282 11.569108 -0.307116 -4.240353 1.574009 0.000000 0.016863 9.269637 -0.096924 -1.875319 0.705718 -0.000000 0.000000 8.374502 -0.096924 -1.875320 0.705720 -0.000000 0.000000 8.374490 -0.070520 -1.406604 0.528944 -0.000000 0.000002 12.152556 5.269479 -18.090116 -10.280152 -0.000001 0.040103 7.802326 6.283240 2.633646 -17.156967 2.894405 0.000000 6.791373 7.800117 0.897327 -11.270497 13.574682 0.000002 -0.000006 65.352117 9.720157 22.953383 23.923899 0.000007 -0.000003 80.040111 -40.470783 33.208209 19.846714 0.012765 -0.000006 -27.559810 30.642599 23.378187 -2.894403 0.000000 6.791376 -7.102363 0.064380 -4.653676 -13.574687 -0.000001 -0.000004 -57.404557 -10.219078 -31.629862 -23.923899 0.000005 0.000001 -52.483327 -17.514412 -51.558216 -19.846724 0.012749 0.000005 23.687489 37.073461 -24.682862 9.469261 0.004643 0.045489 1.241946 -14.026026 -11.331542 0.000137 0.002657 -40.478512 -3.897057 3.345600 -3.200399 0.000014 0.049107 -35.224056 4.867334 0.293845 -0.278932 -0.000008 12.539529 -6.151389 0.124968 -0.072578 0.158193 -9.469263 0.004641 0.045489 0.113287 -13.716867 -22.051139 -0.000851 0.002520 -40.478474 -0.817441 4.766429 18.494426 -0.000972 0.048922 -35.224079 1.141137 -0.594194 21.357211 0.000010 12.539530 -6.151387 -0.151270 -0.056694 -0.252544 
4.774938 4.544708 83.035858 -10.944973 -2.697172 -103.011158 0.000000 -0.009281 11.569118 -0.295791 -4.203334 1.575734 0.000000 0.016863 9.269628 -0.094303 -1.858318 0.699902 -0.000001 0.000002 8.374491 -0.094303 -1.858319 0.699901 -0.000001 0.000000 8.374492 -0.068592 -1.393849 0.524594 -0.000000 0.000000 12.152545 5.256105 -18.001585 -10.282778 0.000001 0.040104 7.802324 6.249393 2.795890 -17.168343 2.894404 0.000001 6.791378 7.770304 0.887525 -11.240507 13.574682 0.000001 0.000001 65.408589 9.814481 23.457928 23.923899 0.000003 -0.000002 80.311126 -40.298779 33.808651 19.846718 0.012754 -0.000009 -28.229020 30.490388 22.467091 -2.894405 0.000000 6.791377 -7.090953 0.042191 -4.696160 -13.574688 -0.000003 -0.000000 -57.536831 -10.034505 -32.085623 -23.923904 0.000003 -0.000006 -52.540151 -17.446998 -52.011204 -19.846710 0.012752 -0.000011 24.480192 36.917985 -23.644691 9.469264 0.004643 0.045494 1.240950 -14.069105 -11.335779 0.000138 0.002657 -40.478508 -3.879486 3.323126 -3.206288 0.000015 0.049107 -35.224056 4.834631 0.307922 -0.308261 -0.000008 12.539527 -6.151396 0.129626 -0.063529 0.166199 -9.469261 0.004643 0.045497 0.111476 -13.744899 -22.078233 -0.000849 0.002521 -40.478481 -0.820315 4.722036 18.461624 -0.000970 0.048929 -35.224075 1.130062 -0.565426 21.270083 0.000013 12.539531 -6.151398 -0.145827 -0.055574 -0.253647 
4.779400 4.543435 83.036888 -10.982807 -2.689352 -102.974760 0.000000 -0.009282 11.569100 -0.294708 -4.162334 1.572007 -0.000000 0.016863 9.269636 -0.091126 -1.839777 0.694911 0.000000 0.000000 8.374494 -0.091126 -1.839778 0.694912 -0.000000 -0.000000 8.374485 -0.066246 -1.379939 0.520863 -0.000000 0.000001 12.152567 5.245258 -17.916064 -10.291937 0.000002 0.040093 7.802316 6.218302 2.952541 -17.190898 2.894404 0.000000 6.791383 7.730054 0.884224 -11.205527 13.574687 0.000000 0.000004 65.446709 9.911630 23.931936 23.923908 0.000006 -0.000003 80.458959 -40.302884 34.450928 19.846714 0.012763 -0.000006 -28.833401 30.260012 21.658555 -2.894405 -0.000000 6.791387 -7.080550 0.029008 -4.724739 -13.574681 -0.000003 0.000013 -57.649051 -9.843224 -32.536737 -23.923904 0.000006 -0.000001 -52.537504 -17.493861 -52.450337 -19.846712 0.012760 -0.000009 25.161440 36.743850 -22.829192 9.469265 0.004644 0.045492 1.231114 -14.102803 -11.323790 0.000139 0.002657 -40.478523 -3.867227 3.301444 -3.224739 0.000016 0.049108 -35.224056 4.806055 0.324941 -0.349342 -0.000008 12.539527 -6.151397 0.134758 -0.061384 0.179720 -9.469263 0.004643 0.045485 0.102282 -13.767652 -22.120874 -0.000848 0.002520 -40.478477 -0.826631 4.681806 18.443857 -0.000965 0.048932 -35.224072 1.133127 -0.541927 21.170091 0.000011 12.539533 -6.151401 -0.152323 -0.053737 -0.277481 
